<svg viewBox="0 0 400 300" xmlns="http://www.w3.org/2000/svg" preserveAspectRatio="xMidYMid slice">
  <rect x="0"   y="0"   width="130" height="150" fill="#b0cc9a"/>
  <rect x="130" y="0"   width="140" height="110" fill="#e8d898"/>
  <rect x="270" y="0"   width="130" height="150" fill="#9abcd4"/>
  <rect x="0"   y="150" width="160" height="150" fill="#d4bc9a"/>
  <rect x="160" y="110" width="110" height="190" fill="#c0d4a8"/>
  <rect x="270" y="150" width="130" height="150" fill="#a8bcd4"/>
  <rect width="400" height="300" fill="rgba(255,255,255,0.1)"/>
  <circle cx="28"  cy="30"  r="4.5" fill="#e05555" opacity="0.88"/>
  <circle cx="62"  cy="65"  r="3.5" fill="#e07730" opacity="0.88"/>
  <circle cx="18"  cy="90"  r="4"   fill="#33aa66" opacity="0.88"/>
  <circle cx="95"  cy="38"  r="3"   fill="#884488" opacity="0.88"/>
  <circle cx="112" cy="80"  r="3.5" fill="#e07730" opacity="0.88"/>
  <circle cx="50"  cy="122" r="3"   fill="#3388cc" opacity="0.88"/>
  <circle cx="162" cy="25"  r="4"   fill="#e0c030" opacity="0.88"/>
  <circle cx="205" cy="55"  r="3"   fill="#e07730" opacity="0.88"/>
  <circle cx="238" cy="85"  r="3.5" fill="#cc4444" opacity="0.88"/>
  <circle cx="175" cy="88"  r="2.5" fill="#e0c030" opacity="0.88"/>
  <circle cx="295" cy="22"  r="4"   fill="#3388cc" opacity="0.88"/>
  <circle cx="340" cy="68"  r="3.5" fill="#3388cc" opacity="0.88"/>
  <circle cx="372" cy="118" r="3"   fill="#33aa66" opacity="0.88"/>
  <circle cx="308" cy="108" r="3"   fill="#5566cc" opacity="0.88"/>
  <circle cx="38"  cy="185" r="3.5" fill="#e07730" opacity="0.88"/>
  <circle cx="88"  cy="225" r="4"   fill="#33aa66" opacity="0.88"/>
  <circle cx="125" cy="270" r="3"   fill="#e05555" opacity="0.88"/>
  <circle cx="55"  cy="258" r="3.5" fill="#884488" opacity="0.88"/>
  <circle cx="195" cy="158" r="4"   fill="#3388cc" opacity="0.88"/>
  <circle cx="232" cy="218" r="3"   fill="#884488" opacity="0.88"/>
  <circle cx="248" cy="270" r="3.5" fill="#e0c030" opacity="0.88"/>
  <circle cx="178" cy="258" r="3"   fill="#33aa66" opacity="0.88"/>
  <circle cx="298" cy="180" r="4"   fill="#cc4444" opacity="0.88"/>
  <circle cx="352" cy="235" r="3.5" fill="#33aa66" opacity="0.88"/>
  <circle cx="382" cy="272" r="3"   fill="#e07730" opacity="0.88"/>
  <circle cx="318" cy="268" r="3.5" fill="#5566cc" opacity="0.88"/>
</svg>
